# Alias OBJ Model File
# Exported from SketchUp, (c) 2000-2012 Trimble Navigation Limited
# File units = millimeters

mtllib 11.mtl

g Mesh1 Group1 Model

usemtl FrontColor
v -1.5981 2.7 3.47733
vt 1303.71 1046.89
vn 0 -1 -0
v -1.66881 2.7 3.54804
vt 1306.49 1044.11
v -2.34056 2.7 2.87628
vt 1332.94 1070.55
v -2.26985 2.7 2.80557
vt 1330.16 1073.34
f 1/1/1 2/2/1 3/3/1 4/4/1 

vt 185.534 78.7402
vn -0.707107 0 -0.707107
vt 181.597 78.7402
v -1.5981 0.7 3.47733
vt 181.597 -2.84217e-14
v -1.66881 0.7 3.54804
vt 185.534 -2.84217e-14
f 2/5/2 1/6/2 5/7/2 6/8/2 

v -1.20713 3.2 3.8683
vt 1640.36 98.4252
vn 0.707107 -1.47335e-12 -0.707107
v -1.20713 0.7 3.8683
vt 1640.36 -2.6595e-10
vt 1662.13 -2.67584e-10
vt 1662.13 78.7402
vt 1699.53 78.7402
v -2.26985 0.7 2.80557
vt 1699.53 -2.67627e-10
v -3.52361 0.7 1.55182
vt 1769.33 -2.68721e-10
v -3.52361 3.2 1.55182
vt 1769.33 98.4252
f 7/9/3 8/10/3 5/11/3 1/12/3 4/13/3 9/14/3 10/15/3 11/16/3 

vt -181.597 98.4252
vn 0.707107 -1.10262e-14 0.707107
v -1.27784 3.2 3.93901
vt -185.534 98.4252
v -1.27784 0.7 3.93901
vt -185.534 -1.85843e-11
vt -181.597 -1.64811e-11
f 7/17/4 12/18/4 13/19/4 8/20/4 

v -3.59432 3.2 1.62253
vt -1382.3 1119.92
vn 1.89029e-13 1 -2.52526e-13
vt -1291.1 1028.72
vt -1288.32 1031.5
vt -1379.52 1122.7
f 14/21/5 12/22/5 7/23/5 11/24/5 

vt -1662.13 -2.86587e-11
vn -0.707107 1.54313e-13 0.707107
vt -1640.36 -2.91277e-11
vt -1640.36 98.4252
vt -1769.33 98.4252
v -3.59432 0.7 1.62253
vt -1769.33 -2.52197e-11
v -2.34056 0.7 2.87628
vt -1699.53 -2.87013e-11
vt -1699.53 78.7402
vt -1662.13 78.7402
f 6/25/6 13/26/6 12/27/6 14/28/6 15/29/6 16/30/6 3/31/6 2/32/6 

vn 1.26627e-13 -1 -1.25204e-13
vt 1288.32 1031.5
vt 1291.1 1028.72
f 5/1/7 8/33/7 13/34/7 6/2/7 

vt 185.534 98.4252
vn -0.707107 1.44969e-14 -0.707107
vt 181.597 98.4252
vt 181.597 -2.68152e-11
vt 185.534 -2.22393e-11
f 14/35/8 11/36/8 10/37/8 15/38/8 

vn -2.77374e-13 -1 2.70529e-13
vt 1382.3 1119.92
vt 1379.52 1122.7
f 9/4/9 16/3/9 15/39/9 10/40/9 

vt -181.597 78.7402
vn 0.707107 0 0.707107
vt -185.534 78.7402
vt -185.534 -7.10543e-14
vt -181.597 -7.10543e-14
f 4/41/10 3/42/10 16/43/10 9/44/10 

g Mesh2 Group2 Model

v 2.94359 2.67466e-11 -0.282418
vt 341.396 90.5512
vn 0.707107 -6.76844e-25 -0.707107
v 0.627107 2.67977e-11 -2.5989
vt 470.373 90.5512
v 0.627107 0.7 -2.5989
vt 470.373 118.11
v 2.94359 0.7 -0.282418
vt 341.396 118.11
f 17/45/11 18/46/11 19/47/11 20/48/11 

vt -990.197 1655.4
vn -3.65887e-17 -1 -2.5779e-16
vt -1081.4 1564.2
v -1.27784 2.67497e-11 3.93901
vt -915.199 1398.01
v -3.59432 2.68492e-11 1.62253
vt -823.999 1489.21
f 18/49/12 17/50/12 21/51/12 22/52/12 

vt 1870.72 118.11
vn 0.707107 -1.44534e-27 0.707107
v -1.27784 0.7 3.93901
vt 1635.68 118.11
vt 1635.68 90.5512
vt 1870.72 90.5512
f 20/53/13 23/54/13 21/55/13 17/56/13 

vt 1081.4 1564.2
vn 1.94571e-14 1 1.30121e-14
vt 990.197 1655.4
v -3.59432 0.7 1.62253
vt 823.999 1489.21
vt 915.199 1398.01
f 20/57/14 19/58/14 24/59/14 23/60/14 

vt -1635.68 118.11
vn -0.707107 -2.11688e-16 -0.707107
vt -1870.72 118.11
vt -1870.72 90.5512
vt -1635.68 90.5512
f 24/61/15 19/62/15 18/63/15 22/64/15 

vt -341.396 118.11
vn -0.707107 -1.68331e-16 0.707107
vt -470.373 118.11
vt -470.373 90.5512
vt -341.396 90.5512
f 23/65/16 24/66/16 22/67/16 21/68/16 

g Mesh3 Group3 Model

v 3.14865 0.7 -0.501621
vt 1000.01 27.5591
vn 0.707107 -1.32195e-14 0.707107
v 3.14865 3.2 -0.501621
vt 1000.01 125.984
v 2.93652 3.2 -0.289489
vt 988.204 125.984
v 2.93652 2.65711e-11 -0.289489
vt 988.204 -2.57935e-11
v 3.14865 2.65426e-11 -0.501621
vt 1000.01 -2.69162e-11
f 25/69/17 26/70/17 27/71/17 28/72/17 29/73/17 

vt 1414.62 27.5591
vn 0.707107 -5.49339e-14 -0.707107
v 2.43214 1.7 -1.21813
vt 1454.51 66.9291
vt 1414.62 125.984
f 25/74/18 30/75/18 26/76/18

v 0.839239 0.7 -2.81103
vt 1543.2 27.5591
f 30/75/18 25/74/18 31/77/18

vn 0.707107 3.58811e-14 -0.707107
vt 1414.62 -4.40973e-11
v 0.839239 2.65117e-11 -2.81103
vt 1543.2 -4.5315e-11
f 25/74/19 29/78/19 32/79/19 31/77/19 

vt 384.089 1798.32
vn -3.61675e-14 -1 5.36567e-14
vt 293.167 1707.4
vt 301.519 1699.05
v 0.627107 2.65212e-11 -2.5989
vt 392.441 1789.97
f 32/80/20 29/81/20 28/82/20 33/83/20 

vt -1414.62 4.05151e-11
vn -0.707107 4.81764e-14 0.707107
v 2.22001 1.7 -1.00599
vt -1454.51 66.9291
vt -1543.2 3.85525e-11
f 28/84/21 34/85/21 33/86/21

vt -1414.62 125.984
f 34/85/21 28/84/21 27/87/21

v 2.22001 3.15 -1.00599
vt -1454.51 124.016
f 27/87/21 35/88/21 34/85/21

v 0.627107 3.2 -2.5989
vt -1543.2 125.984
f 35/88/21 27/87/21 36/89/21

vt -392.441 1789.97
vn 4.61633e-14 1 -4.82733e-14
vt -301.519 1699.05
vt -293.167 1707.4
v 0.839239 3.2 -2.81103
vt -384.089 1798.32
f 36/90/22 27/91/22 26/92/22 37/93/22 

v 2.43214 3.15 -1.21813
vt 1454.51 124.016
vt 1543.2 125.984
f 26/76/18 38/94/18 37/95/18

f 38/94/18 26/76/18 30/75/18

vt -1000.01 124.016
vn -0.707107 1.2842e-14 -0.707107
vt -1000.01 66.9291
vt -988.204 66.9291
vt -988.204 124.016
f 38/96/23 30/97/23 34/98/23 35/99/23 

vt -321.376 1735.61
vn 6.35666e-14 1 -6.35666e-14
v 1.38775 1.7 -2.26252
vt -362.494 1776.73
v 1.17562 1.7 -2.05039
vt -370.846 1768.38
vt -329.728 1727.26
f 30/100/24 39/101/24 40/102/24 34/103/24 

vt 1512.66 66.9291
f 30/75/18 31/77/18 39/104/18

v 1.38775 3.15 -2.26252
vt 1512.66 124.016
f 39/104/18 31/77/18 41/105/18

f 37/95/18 41/105/18 31/77/18

f 37/95/18 38/94/18 41/105/18

vt 362.494 1776.73
vn -6.35666e-14 -1 6.35666e-14
vt 321.376 1735.61
vt 329.728 1727.26
v 1.17562 3.15 -2.05039
vt 370.846 1768.38
f 41/106/25 38/107/25 35/108/25 42/109/25 

vt -1512.66 124.016
f 35/88/21 36/89/21 42/110/21

f 42/110/21 36/89/21 33/86/21

vt -1000.01 125.984
vn -0.707107 3.58676e-16 -0.707107
vt -1000.01 27.5591
vt -1000.01 -9.98683e-12
vt -988.204 -9.60913e-12
vt -988.204 125.984
f 37/111/26 31/112/26 32/113/26 33/114/26 36/115/26 

vt -1512.66 66.9291
f 33/86/21 40/116/21 42/110/21

f 33/86/21 34/85/21 40/116/21

vt 1000.01 66.9291
vn 0.707107 -1.2842e-14 0.707107
vt 1000.01 124.016
vt 988.204 124.016
vt 988.204 66.9291
f 39/117/27 41/118/27 42/119/27 40/120/27 

g Mesh4 Group4 Model

v 2.94359 0.7 -0.282418
vt -3.93701 376.417
v -1.20713 0.7 3.8683
vt -3.93701 145.315
v -1.27784 0.7 3.79759
vt 0 145.315
v 2.87288 0.7 -0.353129
vt 2.27374e-13 376.417
f 43/121/1 44/122/1 45/123/1 46/124/1 

vt 145.315 0
vt 376.417 0
v 2.94359 3.2 -0.282418
vt 376.417 98.4252
v -1.20713 3.2 3.8683
vt 145.315 98.4252
f 44/125/10 43/126/10 47/127/10 48/128/10 

vt -3.93701 0
vn 0.707107 0 -0.707107
vt 2.27374e-13 0
v 2.87288 3.2 -0.353129
vt 2.27374e-13 98.4252
vt -3.93701 98.4252
f 43/129/28 46/130/28 49/131/28 47/132/28 

vt -376.417 0
vt -145.315 0
v -1.27784 3.2 3.79759
vt -145.315 98.4252
vt -376.417 98.4252
f 46/133/2 45/134/2 50/135/2 49/136/2 

vt 0 0
vn -0.707107 0 0.707107
vt 3.93701 0
vt 3.93701 98.4252
vt 0 98.4252
f 45/137/29 44/138/29 48/139/29 50/140/29 

vt 3.93701 145.315
vn 0 1 -0
vt 3.93701 376.417
vt -2.27374e-13 376.417
f 48/141/30 47/142/30 49/143/30 50/123/30 

g Mesh5 Group5 Model

v 0.697818 0.7 -2.52819
v -3.4529 0.7 1.62253
v -3.52361 0.7 1.55182
v 0.627107 0.7 -2.5989
f 51/121/1 52/122/1 53/123/1 54/124/1 

v 0.697818 3.2 -2.52819
v -3.4529 3.2 1.62253
f 52/125/10 51/126/10 55/127/10 56/128/10 

v 0.627107 3.2 -2.5989
f 51/129/28 54/130/28 57/131/28 55/132/28 

v -3.52361 3.2 1.55182
f 54/133/2 53/134/2 58/135/2 57/136/2 

f 53/137/29 52/138/29 56/139/29 58/140/29 

f 56/141/30 55/142/30 57/143/30 58/123/30 

g Mesh6 Group6 Model

v 2.7951 0.7 -0.855175
vt -7.87402 321.181
v 3.14865 0.7 -0.501621
vt -27.5591 321.181
v 2.7951 0.7 -0.148068
vt -27.5591 301.496
v 2.44154 0.7 -0.501621
vt -7.87402 301.496
f 59/144/1 60/145/1 61/146/1 62/147/1 

vt -27.5591 0
vt -7.87402 0
v 2.7951 3.2 -0.855175
vt -7.87402 98.4252
v 3.14865 3.2 -0.501621
vt -27.5591 98.4252
f 60/148/28 59/149/28 63/150/28 64/151/28 

vt -321.181 0
vt -301.496 0
v 2.44154 3.2 -0.501621
vt -301.496 98.4252
vt -321.181 98.4252
f 59/152/2 62/153/2 65/154/2 63/155/2 

vt 7.87402 0
vt 27.5591 0
v 2.7951 3.2 -0.148068
vt 27.5591 98.4252
vt 7.87402 98.4252
f 62/156/29 61/157/29 66/158/29 65/159/29 

vt 301.496 0
vt 321.181 0
vt 321.181 98.4252
vt 301.496 98.4252
f 61/160/10 60/161/10 64/162/10 66/163/10 

vt 27.5591 321.181
vt 7.87402 321.181
vt 7.87402 301.496
vt 27.5591 301.496
f 64/164/30 63/165/30 65/166/30 66/167/30 

g Mesh7 Window_Sliding_Main_Frame_7 Window_Sliding_7_1 Group7 Model

usemtl WB_Frame
v 2.29072 2.78006 -1.07671
vt 0 42.5221
v 2.24123 2.68 -1.1262
vt -2.75591 38.5827
v 2.29072 1.7 -1.07671
f 67/168/29 68/169/29 69/137/29

v 1.24633 2.78006 -2.1211
vt -58.1496 42.5221
f 68/169/29 67/168/29 70/170/29

vt -58.1496 0
v 2.36143 2.78006 -1.14742
vt 0 3.93701
v 1.31704 2.78006 -2.19181
vt -58.1496 3.93701
f 70/171/30 67/137/30 71/172/30 72/173/30 

vt -42.5221 0
v 2.36143 1.7 -1.14742
vt -42.5221 3.93701
f 67/174/10 69/137/10 73/172/10 71/175/10 

v 1.24633 1.7 -2.1211
vt 58.1496 0
v 1.31704 1.7 -2.19181
vt 58.1496 3.93701
f 69/137/1 74/176/1 75/177/1 73/172/1 

v 2.24123 1.77 -1.1262
vt -2.75591 2.75591
f 69/137/29 76/178/29 74/171/29

f 76/178/29 69/137/29 68/169/29

vt 2.75591 0
vt 38.5827 0
v 2.31194 2.68 -1.19691
vt 38.5827 3.93701
v 2.31194 1.77 -1.19691
vt 2.75591 3.93701
f 76/179/2 68/180/2 77/181/2 78/182/2 

v 1.29582 2.68 -2.0716
vt 55.3937 0
v 1.36653 2.68 -2.14232
vt 55.3937 3.93701
f 68/179/1 79/183/1 80/184/1 77/182/1 

vt -55.3937 38.5827
f 68/169/29 70/170/29 79/185/29

v 1.29582 1.77 -2.0716
vt -55.3937 2.75591
f 79/185/29 70/170/29 81/186/29

f 74/171/29 81/186/29 70/170/29

f 74/171/29 76/178/29 81/186/29

vt -55.3937 0
vt -2.75591 0
vt -2.75591 3.93701
v 1.36653 1.77 -2.14232
vt -55.3937 3.93701
f 81/187/30 76/188/30 78/189/30 82/190/30 

vt 2.75591 2.75591
vt 55.3937 2.75591
f 78/191/28 75/176/28 82/192/28

f 78/191/28 73/137/28 75/176/28

f 73/137/28 78/191/28 71/168/28

vt 2.75591 38.5827
f 77/193/28 71/168/28 78/191/28

vt 58.1496 42.5221
f 71/168/28 77/193/28 72/194/28

vt 55.3937 38.5827
f 72/194/28 77/193/28 80/195/28

f 72/194/28 80/195/28 75/176/28

f 82/192/28 75/176/28 80/195/28

vt -38.5827 0
vt -38.5827 3.93701
f 79/196/10 81/188/10 82/189/10 80/197/10 

vt 42.5221 0
vt 42.5221 3.93701
f 74/137/2 70/198/2 72/199/2 75/172/2 

g Mesh8 Glazing Window_Sliding_Casement_14 Window_Sliding_7_1 Group7 Model

usemtl WB_Glazing
v 2.21648 1.84 -1.20045
vt 5.51181 5.51181
v 1.81802 1.84 -1.5989
vt 27.6969 5.51181
v 1.81802 2.61 -1.5989
vt 27.6969 35.8268
v 2.21648 2.61 -1.20045
vt 5.51181 35.8268
f 83/200/28 84/201/28 85/202/28 86/203/28 

g Mesh9 Glazing1 Window_Sliding_Casement_14 Window_Sliding_7_1 Group7 Model

v 2.22355 1.84 -1.20752
v 1.82509 1.84 -1.60597
v 1.82509 2.61 -1.60597
v 2.22355 2.61 -1.20752
f 87/200/28 88/201/28 89/202/28 90/203/28 

g Mesh10 Window_Sliding_Casement_14 Window_Sliding_7_1 Group7 Model

usemtl WB_Frame
v 2.24123 2.68 -1.1262
v 2.19173 2.61 -1.1757
vt -5.51181 35.8268
v 2.24123 1.77 -1.1262
f 91/169/29 92/204/29 93/178/29

v 1.74378 2.68 -1.62365
vt -30.4528 38.5827
f 92/204/29 91/169/29 94/205/29

vt -30.4528 0
v 2.29072 2.68 -1.1757
v 1.79327 2.68 -1.67315
vt -30.4528 2.75591
f 94/206/30 91/188/30 95/178/30 96/207/30 

v 2.29072 1.77 -1.1757
vt -38.5827 2.75591
f 91/196/10 93/188/10 97/178/10 95/208/10 

v 1.74378 1.77 -1.62365
vt 30.4528 0
v 1.79327 1.77 -1.67315
vt 30.4528 2.75591
f 93/179/1 98/209/1 99/210/1 97/191/1 

v 2.19173 1.84 -1.1757
vt -5.51181 5.51181
f 93/178/29 100/211/29 98/207/29

f 100/211/29 93/178/29 92/204/29

vt 5.51181 0
vt 35.8268 0
v 2.24123 2.61 -1.2252
vt 35.8268 2.75591
v 2.24123 1.84 -1.2252
vt 5.51181 2.75591
f 100/212/2 92/213/2 101/214/2 102/215/2 

v 1.79327 2.61 -1.57415
vt 27.6969 0
v 1.84277 2.61 -1.62365
vt 27.6969 2.75591
f 92/212/1 103/216/1 104/217/1 101/215/1 

vt -27.6969 35.8268
f 92/204/29 94/205/29 103/218/29

v 1.79327 1.84 -1.57415
vt -27.6969 5.51181
f 103/218/29 94/205/29 105/219/29

f 98/207/29 105/219/29 94/205/29

f 98/207/29 100/211/29 105/219/29

vt -27.6969 0
vt -5.51181 0
vt -5.51181 2.75591
v 1.84277 1.84 -1.62365
vt -27.6969 2.75591
f 105/220/30 100/221/30 102/222/30 106/223/30 

f 102/200/28 99/210/28 106/201/28

f 102/200/28 97/191/28 99/210/28

f 97/191/28 102/200/28 95/193/28

f 101/203/28 95/193/28 102/200/28

vt 30.4528 38.5827
f 95/193/28 101/203/28 96/224/28

f 96/224/28 101/203/28 104/202/28

f 96/224/28 104/202/28 99/210/28

f 106/201/28 99/210/28 104/202/28

vt -35.8268 0
vt -35.8268 2.75591
f 103/225/10 105/221/10 106/222/10 104/226/10 

vt 38.5827 2.75591
f 98/179/2 94/180/2 96/227/2 99/191/2 

g Mesh11 Glazing2 Window_Sliding_Casement_14_1 Window_Sliding_7_1 Group7 Model

usemtl WB_Glazing
v 1.81802 1.84 -1.6979
v 1.41957 1.84 -2.09635
v 1.41957 2.61 -2.09635
v 1.81802 2.61 -1.6979
f 107/200/28 108/201/28 109/202/28 110/203/28 

g Mesh12 Glazing3 Window_Sliding_Casement_14_1 Window_Sliding_7_1 Group7 Model

v 1.82509 1.84 -1.70497
v 1.42664 1.84 -2.10342
v 1.42664 2.61 -2.10342
v 1.82509 2.61 -1.70497
f 111/200/28 112/201/28 113/202/28 114/203/28 

g Mesh13 Window_Sliding_Casement_14_1 Window_Sliding_7_1 Group7 Model

usemtl WB_Frame
v 1.84277 2.68 -1.62365
v 1.79327 2.61 -1.67315
v 1.84277 1.77 -1.62365
f 115/169/29 116/204/29 117/178/29

v 1.34532 2.68 -2.1211
f 116/204/29 115/169/29 118/205/29

v 1.89227 2.68 -1.67315
v 1.39482 2.68 -2.1706
f 118/206/30 115/188/30 119/178/30 120/207/30 

v 1.89227 1.77 -1.67315
f 115/196/10 117/188/10 121/178/10 119/208/10 

v 1.34532 1.77 -2.1211
v 1.39482 1.77 -2.1706
f 117/179/1 122/209/1 123/210/1 121/191/1 

v 1.79327 1.84 -1.67315
f 117/178/29 124/211/29 122/207/29

f 124/211/29 117/178/29 116/204/29

v 1.84277 2.61 -1.72265
v 1.84277 1.84 -1.72265
f 124/212/2 116/213/2 125/214/2 126/215/2 

v 1.39482 2.61 -2.0716
v 1.44432 2.61 -2.1211
f 116/212/1 127/216/1 128/217/1 125/215/1 

f 116/204/29 118/205/29 127/218/29

v 1.39482 1.84 -2.0716
f 127/218/29 118/205/29 129/219/29

f 122/207/29 129/219/29 118/205/29

f 122/207/29 124/211/29 129/219/29

v 1.44432 1.84 -2.1211
f 129/220/30 124/221/30 126/222/30 130/223/30 

f 126/200/28 123/210/28 130/201/28

f 126/200/28 121/191/28 123/210/28

f 121/191/28 126/200/28 119/193/28

f 125/203/28 119/193/28 126/200/28

f 119/193/28 125/203/28 120/224/28

f 120/224/28 125/203/28 128/202/28

f 120/224/28 128/202/28 123/210/28

f 130/201/28 123/210/28 128/202/28

f 127/225/10 129/221/10 130/222/10 128/226/10 

f 122/179/2 118/180/2 120/227/2 123/191/2 

g Mesh14 Window_Fixed_Main_Frame_2 Window_Fixed_2_1 Group7 Model

v 2.29072 3.15 -1.07671
vt 0 15.748
vn -0.707107 5.90847e-14 0.707107
v 2.24123 3.08 -1.1262
vt -2.75591 12.9921
v 2.29072 2.75 -1.07671
f 131/228/31 132/229/31 133/137/31

v 1.24633 3.15 -2.1211
vt -58.1496 15.748
f 132/229/31 131/228/31 134/230/31

vn 4.17792e-14 1 -4.17792e-14
v 2.36143 3.15 -1.14742
v 1.31704 3.15 -2.19181
f 134/171/32 131/137/32 135/172/32 136/173/32 

vt -15.748 0
v 2.36143 2.75 -1.14742
vt -15.748 3.93701
f 131/231/10 133/137/10 137/172/10 135/232/10 

vn -4.17792e-14 -1 4.17792e-14
v 1.24633 2.75 -2.1211
v 1.31704 2.75 -2.19181
f 133/137/33 138/176/33 139/177/33 137/172/33 

v 2.24123 2.82 -1.1262
f 133/137/31 140/178/31 138/171/31

f 140/178/31 133/137/31 132/229/31

vt 12.9921 0
v 2.31194 3.08 -1.19691
vt 12.9921 3.93701
v 2.31194 2.82 -1.19691
f 140/179/2 132/233/2 141/234/2 142/182/2 

v 1.29582 3.08 -2.0716
v 1.36653 3.08 -2.14232
f 132/179/33 143/183/33 144/184/33 141/182/33 

vt -55.3937 12.9921
f 132/229/31 134/230/31 143/235/31

v 1.29582 2.82 -2.0716
f 143/235/31 134/230/31 145/186/31

f 138/171/31 145/186/31 134/230/31

f 138/171/31 140/178/31 145/186/31

v 1.36653 2.82 -2.14232
f 145/187/32 140/188/32 142/189/32 146/190/32 

vn 0.707107 -5.90847e-14 -0.707107
f 142/191/34 139/176/34 146/192/34

f 142/191/34 137/137/34 139/176/34

f 137/137/34 142/191/34 135/228/34

vt 2.75591 12.9921
f 141/236/34 135/228/34 142/191/34

vt 58.1496 15.748
f 135/228/34 141/236/34 136/237/34

vt 55.3937 12.9921
f 136/237/34 141/236/34 144/238/34

f 136/237/34 144/238/34 139/176/34

f 146/192/34 139/176/34 144/238/34

vt -12.9921 0
vt -12.9921 3.93701
f 143/239/10 145/188/10 146/189/10 144/240/10 

vt 15.748 0
vt 15.748 3.93701
f 138/137/2 134/241/2 136/242/2 139/172/2 

g Mesh15 Glazing4 Window_Fixed_2_1 Group7 Model

usemtl WB_Glazing
v 2.27658 2.82 -1.16156
v 1.33118 2.82 -2.10696
v 1.33118 3.08 -2.10696
v 2.27658 3.08 -1.16156
f 147/191/34 148/192/34 149/238/34 150/236/34 

g Mesh16 Glazing5 Window_Fixed_2_1 Group7 Model

v 2.28365 2.82 -1.16863
v 1.33825 2.82 -2.11403
v 1.33825 3.08 -2.11403
v 2.28365 3.08 -1.16863
f 151/191/34 152/192/34 153/238/34 154/236/34 

