# Alias OBJ Model File
# Exported from SketchUp, (c) 2000-2012 Trimble Navigation Limited
# File units = millimeters

mtllib 9.mtl

g Mesh1 Group1 Model

usemtl FrontColor
v 1.58096e-13 3.2 1.72662e-12
vt 573.155 98.4252
vn 0.707107 1.12965e-13 -0.707107
v 1.36779e-13 0.7 -4.9738e-14
vt 573.155 1.12812e-11
v -0.390974 0.7 -0.390974
vt 594.923 -9.28547e-12
v -0.390974 2.7 -0.390974
vt 594.923 78.7402
v -1.06273 2.7 -1.06273
vt 632.325 78.7402
v -1.06273 0.7 -1.06273
vt 632.325 -6.28698e-12
v -3.81838 0.7 -3.81838
vt 785.753 3.03534e-12
v -3.81838 3.2 -3.81838
vt 785.753 98.4252
f 1/1/1 2/2/1 3/3/1 4/4/1 5/5/1 6/6/1 7/7/1 8/8/1 

vt 29.4882 98.4252
vn 0.707107 -5.04956e-13 0.707107
v -0.0707107 3.2 0.0707107
vt 25.5512 98.4252
v -0.0707107 0.7 0.0707107
vt 25.5512 -2.79723e-10
vt 29.4882 -2.74806e-10
f 1/9/2 9/10/2 10/11/2 2/12/2 

v -3.88909 3.2 -3.74767
vt -785.753 25.5512
vn -3.94904e-13 1 4.88206e-13
vt -573.155 25.5512
vt -573.155 29.4882
vt -785.753 29.4882
f 11/13/3 9/14/3 1/15/3 8/16/3 

v -0.461684 0.7 -0.320263
vt -594.923 -1.33424e-11
vn -0.707107 -2.89147e-13 0.707107
vt -573.155 2.30731e-12
vt -573.155 98.4252
vt -785.753 98.4252
v -3.88909 0.7 -3.74767
vt -785.753 -1.02159e-12
v -1.13344 0.7 -0.992014
vt -632.325 -1.03439e-11
v -1.13344 2.7 -0.992014
vt -632.325 78.7402
v -0.461684 2.7 -0.320263
vt -594.923 78.7402
f 12/17/4 10/18/4 9/19/4 11/20/4 13/21/4 14/22/4 15/23/4 16/24/4 

vt 594.923 29.4882
vn 2.73371e-13 -1 -3.15369e-13
vt 573.155 29.4882
vt 573.155 25.5512
vt 594.923 25.5512
f 3/25/5 2/26/5 10/27/5 12/28/5 

vt -25.5512 78.7402
vn -0.707107 6.12605e-14 -0.707107
vt -29.4882 78.7402
vt -29.4882 -4.23997e-11
vt -25.5512 -4.23997e-11
f 16/29/6 4/30/6 3/31/6 12/32/6 

vn -4.33177e-14 -1 -4.33177e-14
vt 632.325 25.5512
vt 632.325 29.4882
f 4/25/7 16/28/7 15/33/7 5/34/7 

vt 29.4882 78.7402
vn 0.707107 -6.12605e-14 0.707107
vt 25.5512 78.7402
vt 25.5512 -4.16924e-11
vt 29.4882 -4.16924e-11
f 5/35/8 15/36/8 14/37/8 6/38/8 

vt 785.753 25.5512
vt 785.753 29.4882
f 6/34/7 14/33/7 13/39/7 7/40/7 

vt -25.5512 -4.17692e-11
vt -25.5512 98.4252
vt -29.4882 98.4252
vt -29.4882 -4.17692e-11
f 13/41/6 11/42/6 8/43/6 7/44/6 

g Mesh2 Group2 Model

v -5.7411 -3.25073e-13 -1.89565
vt -584.546 90.5512
vn -0.707107 -2.11688e-16 0.707107
v -1.92272 -3.72147e-13 1.92272
vt -371.947 90.5512
v -1.92272 0.7 1.92272
vt -371.947 118.11
v -5.7411 0.7 -1.89565
vt -584.546 118.11
f 17/45/9 18/46/9 19/47/9 20/48/9 

vt -602.875 1429.55
vn -4.99321e-16 -1 -6.43478e-16
v -3.81838 -2.10498e-13 -3.81838
vt -678.573 1505.25
v 0 -8.88178e-16 7.10543e-15
vt -828.903 1354.92
vt -753.205 1279.22
f 17/49/10 21/50/10 22/51/10 18/52/10 

v -3.81838 0.7 -3.81838
vt -1544.19 118.11
vn -0.707107 2.11688e-16 -0.707107
vt -1544.19 90.5512
vt -1437.14 90.5512
vt -1437.14 118.11
f 23/53/11 21/54/11 17/55/11 20/56/11 

vt 584.546 118.11
vn 0.707107 -4.23376e-16 -0.707107
v 0 0.7 7.10543e-15
vt 371.947 118.11
vt 371.947 90.5512
vt 584.546 90.5512
f 23/57/12 24/58/12 22/59/12 21/60/12 

vt 602.875 1429.55
vn -8.30153e-14 1 5.55776e-14
vt 753.205 1279.22
vt 828.903 1354.92
vt 678.573 1505.25
f 20/61/13 19/62/13 24/63/13 23/64/13 

vt 1544.19 118.11
vn 0.707107 -8.9276e-25 0.707107
vt 1437.14 118.11
vt 1437.14 90.5512
vt 1544.19 90.5512
f 24/65/14 19/66/14 18/67/14 22/68/14 

g Mesh3 Group3 Model

v -5.7411 -7.50827e-13 -1.89565
vt 779.762 1564.12
vn 2.69267e-15 -1 2.35613e-15
v -1.92272 -7.32328e-13 1.92272
vt 629.433 1413.79
v -2.13485 -7.32328e-13 2.13485
vt 637.784 1405.43
v -6.16536 -7.53264e-13 -1.89565
vt 796.466 1564.12
v -4.03051 -7.52542e-13 -4.03051
vt 712.416 1648.16
v -3.81838 -7.50376e-13 -3.81838
vt 704.065 1639.81
f 25/69/15 26/70/15 27/71/15 28/72/15 29/73/15 30/74/15 

v -1.92272 3.2 1.92272
vt 1444.77 125.984
vn 0.707107 -3.0794e-15 -0.707107
vt 1444.77 -7.94482e-12
vt 1657.37 -8.67313e-12
v -5.7411 3.2 -1.89565
vt 1657.37 125.984
f 31/75/16 26/76/16 25/77/16 32/78/16 

vt 554.621 125.984
vn 0.707107 -6.22464e-15 0.707107
v -2.13485 3.2 2.13485
vt 542.81 125.984
vt 542.81 -1.86459e-11
vt 554.621 -1.86459e-11
f 31/79/17 33/80/17 27/81/17 26/82/17 

v -6.16536 3.2 -1.89565
vt -796.466 1564.12
vn -2.26225e-16 1 9.92328e-17
vt -637.784 1405.43
vt -629.433 1413.79
vt -779.762 1564.12
v -3.81838 3.2 -3.81838
vt -704.065 1639.81
v -4.03051 3.2 -4.03051
vt -712.416 1648.16
f 34/83/18 33/84/18 31/85/18 32/86/18 35/87/18 36/88/18 

vt -1669.18 -8.76144e-12
vn -0.707107 3.16044e-15 0.707107
vt -1444.77 -7.93721e-12
vt -1444.77 125.984
vt -1669.18 125.984
f 28/89/19 27/90/19 33/91/19 34/92/19 

v -5.54942 1.7 -2.51159
vt -577.104 66.9291
vn -0.707107 -1.01296e-16 -0.707107
vt -542.81 -1.03079e-11
vt -542.81 125.984
f 37/93/20 28/94/20 34/95/20

vt -661.674 -1.02794e-11
f 28/94/20 37/93/20 29/96/20

v -4.50503 1.7 -3.55599
vt -635.254 66.9291
f 38/97/20 29/96/20 37/93/20

vt -661.674 125.984
f 29/96/20 38/97/20 36/98/20

v -4.50503 3.15 -3.55599
vt -635.254 124.016
f 36/98/20 38/97/20 39/99/20

vt -1669.18 124.016
vn -0.707107 0 0.707107
vt -1669.18 66.9291
v -4.29289 1.7 -3.34386
vt -1657.37 66.9291
v -4.29289 3.15 -3.34386
vt -1657.37 124.016
f 39/100/21 38/101/21 40/102/21 41/103/21 

vt -731.098 1629.48
vn 0 1 -0
vt -772.216 1588.36
v -5.33729 1.7 -2.29946
vt -763.865 1580.01
vt -722.747 1621.13
f 38/104/22 37/105/22 42/106/22 40/107/22 

vt 1669.18 66.9291
vn 0.707107 0 -0.707107
v -5.54942 3.15 -2.51159
vt 1669.18 124.016
v -5.33729 3.15 -2.29946
vt 1657.37 124.016
vt 1657.37 66.9291
f 37/108/23 43/109/23 44/110/23 42/111/23 

vt -577.104 124.016
f 37/93/20 34/95/20 43/112/20

f 43/112/20 34/95/20 39/99/20

f 39/99/20 34/95/20 36/98/20

vt 772.216 1588.36
vn 0 -1 -0
vt 731.098 1629.48
vt 722.747 1621.13
vt 763.865 1580.01
f 43/113/24 39/114/24 41/115/24 44/116/24 

vt 635.254 124.016
vn 0.707107 1.01296e-16 0.707107
vt 661.674 125.984
vt 577.104 124.016
f 41/117/25 35/118/25 44/119/25

vt 635.254 66.9291
f 40/120/25 35/118/25 41/117/25

vt 661.674 -1.01954e-11
f 35/118/25 40/120/25 30/121/25

vt 577.104 66.9291
f 42/122/25 30/121/25 40/120/25

vt 554.621 -1.02131e-11
f 42/122/25 25/123/25 30/121/25

f 25/123/25 42/122/25 32/79/25

f 32/79/25 42/122/25 44/119/25

f 44/119/25 35/118/25 32/79/25

vt 1669.18 -1.06044e-11
vn 0.707107 2.35513e-16 -0.707107
vt 1669.18 125.984
vt 1657.37 -1.05191e-11
f 29/124/26 36/125/26 35/78/26 30/126/26 

g Mesh4 Group4 Model

v -0.0707107 0.7 0.0707107
vt -3.93701 376.417
v -1.92272 0.7 1.92272
vt -3.93701 273.302
v -1.99343 0.7 1.85201
vt -5.68434e-13 273.302
v -0.141421 0.7 5.49338e-12
vt -4.54747e-13 376.417
f 45/127/24 46/128/24 47/129/24 48/130/24 

vt 273.302 0
vn 0.707107 0 0.707107
vt 376.417 0
v -0.0707107 3.2 0.0707107
vt 376.417 98.4252
v -1.92272 3.2 1.92272
vt 273.302 98.4252
f 46/131/27 45/132/27 49/133/27 50/134/27 

vt -3.93701 0
vt -4.54747e-13 0
v -0.141421 3.2 5.49338e-12
vt -4.54747e-13 98.4252
vt -3.93701 98.4252
f 45/135/23 48/136/23 51/137/23 49/138/23 

vt -376.417 0
vn -0.707107 0 -0.707107
vt -273.302 0
v -1.99343 3.2 1.85201
vt -273.302 98.4252
vt -376.417 98.4252
f 48/139/28 47/140/28 52/141/28 51/142/28 

vt 5.68434e-13 0
vt 3.93701 0
vt 3.93701 98.4252
vt 5.68434e-13 98.4252
f 47/143/21 46/144/21 50/145/21 52/146/21 

vt 3.93701 273.302
vt 3.93701 376.417
vt 4.54747e-13 376.417
vt 5.68434e-13 273.302
f 50/147/22 49/148/22 51/149/22 52/150/22 

g Mesh5 Window_Sliding_Main_Frame_7 Window_Sliding_7_1 Group5 Model

usemtl WB_Frame
v -4.36361 2.78006 -3.41457
vt 0 42.5221
v -4.4131 2.68 -3.36507
vt -2.75591 38.5827
v -4.36361 1.7 -3.41457
vt 0 0
f 53/151/27 54/152/27 55/153/27

v -5.408 2.78006 -2.37017
vt -58.1496 42.5221
f 54/152/27 53/151/27 56/154/27

vt -58.1496 0
v -4.43432 2.78006 -3.48528
vt 0 3.93701
v -5.47871 2.78006 -2.44088
vt -58.1496 3.93701
f 56/155/22 53/153/22 57/156/22 58/157/22 

vt -42.5221 0
v -4.43432 1.7 -3.48528
vt -42.5221 3.93701
f 53/158/23 55/153/23 59/156/23 57/159/23 

vn -0 -1 -0
v -5.408 1.7 -2.37017
vt 58.1496 0
v -5.47871 1.7 -2.44088
vt 58.1496 3.93701
f 55/153/29 60/160/29 61/161/29 59/156/29 

v -4.4131 1.77 -3.36507
vt -2.75591 2.75591
f 55/153/27 62/162/27 60/155/27

f 62/162/27 55/153/27 54/152/27

vt 2.75591 0
vt 38.5827 0
v -4.48381 2.68 -3.43578
vt 38.5827 3.93701
v -4.48381 1.77 -3.43578
vt 2.75591 3.93701
f 62/163/21 54/164/21 63/165/21 64/166/21 

v -5.3585 2.68 -2.41967
vt 55.3937 0
v -5.42922 2.68 -2.49038
vt 55.3937 3.93701
f 54/163/29 65/167/29 66/168/29 63/166/29 

vt -55.3937 38.5827
f 54/152/27 56/154/27 65/169/27

v -5.3585 1.77 -2.41967
vt -55.3937 2.75591
f 65/169/27 56/154/27 67/170/27

f 60/155/27 67/170/27 56/154/27

f 60/155/27 62/162/27 67/170/27

vt -55.3937 0
vt -2.75591 0
vt -2.75591 3.93701
v -5.42922 1.77 -2.49038
vt -55.3937 3.93701
f 67/171/22 62/172/22 64/173/22 68/174/22 

vt 2.75591 2.75591
vt 55.3937 2.75591
f 64/175/28 61/160/28 68/176/28

f 64/175/28 59/153/28 61/160/28

f 59/153/28 64/175/28 57/151/28

vt 2.75591 38.5827
f 63/177/28 57/151/28 64/175/28

vt 58.1496 42.5221
f 57/151/28 63/177/28 58/178/28

vt 55.3937 38.5827
f 58/178/28 63/177/28 66/179/28

f 58/178/28 66/179/28 61/160/28

f 68/176/28 61/160/28 66/179/28

vt -38.5827 0
vt -38.5827 3.93701
f 65/180/23 67/172/23 68/173/23 66/181/23 

vt 42.5221 0
vt 42.5221 3.93701
f 60/153/21 56/182/21 58/183/21 61/156/21 

g Mesh6 Glazing Window_Sliding_Casement_14 Window_Sliding_7_1 Group5 Model

usemtl WB_Glazing
v -4.48735 1.84 -3.34032
vt 5.51181 5.51181
v -4.8858 1.84 -2.94187
vt 27.6969 5.51181
v -4.8858 2.61 -2.94187
vt 27.6969 35.8268
v -4.48735 2.61 -3.34032
vt 5.51181 35.8268
f 69/184/28 70/185/28 71/186/28 72/187/28 

g Mesh7 Glazing1 Window_Sliding_Casement_14 Window_Sliding_7_1 Group5 Model

v -4.49442 1.84 -3.34739
v -4.89287 1.84 -2.94894
v -4.89287 2.61 -2.94894
v -4.49442 2.61 -3.34739
f 73/184/28 74/185/28 75/186/28 76/187/28 

g Mesh8 Window_Sliding_Casement_14 Window_Sliding_7_1 Group5 Model

usemtl WB_Frame
v -4.4131 2.68 -3.36507
v -4.4626 2.61 -3.31557
vt -5.51181 35.8268
v -4.4131 1.77 -3.36507
f 77/152/27 78/188/27 79/162/27

v -4.91055 2.68 -2.86762
vt -30.4528 38.5827
f 78/188/27 77/152/27 80/189/27

vt -30.4528 0
v -4.4626 2.68 -3.41457
v -4.96005 2.68 -2.91712
vt -30.4528 2.75591
f 80/190/22 77/172/22 81/162/22 82/191/22 

v -4.4626 1.77 -3.41457
vt -38.5827 2.75591
f 77/180/23 79/172/23 83/162/23 81/192/23 

v -4.91055 1.77 -2.86762
vt 30.4528 0
v -4.96005 1.77 -2.91712
vt 30.4528 2.75591
f 79/163/29 84/193/29 85/194/29 83/175/29 

v -4.4626 1.84 -3.31557
vt -5.51181 5.51181
f 79/162/27 86/195/27 84/191/27

f 86/195/27 79/162/27 78/188/27

vt 5.51181 0
vt 35.8268 0
v -4.5121 2.61 -3.36507
vt 35.8268 2.75591
v -4.5121 1.84 -3.36507
vt 5.51181 2.75591
f 86/196/21 78/197/21 87/198/21 88/199/21 

v -4.86106 2.61 -2.91712
vt 27.6969 0
v -4.91055 2.61 -2.96662
vt 27.6969 2.75591
f 78/196/29 89/200/29 90/201/29 87/199/29 

vt -27.6969 35.8268
f 78/188/27 80/189/27 89/202/27

v -4.86106 1.84 -2.91712
vt -27.6969 5.51181
f 89/202/27 80/189/27 91/203/27

f 84/191/27 91/203/27 80/189/27

f 84/191/27 86/195/27 91/203/27

vt -27.6969 0
vt -5.51181 0
vt -5.51181 2.75591
v -4.91055 1.84 -2.96662
vt -27.6969 2.75591
f 91/204/22 86/205/22 88/206/22 92/207/22 

f 88/184/28 85/194/28 92/185/28

f 88/184/28 83/175/28 85/194/28

f 83/175/28 88/184/28 81/177/28

f 87/187/28 81/177/28 88/184/28

vt 30.4528 38.5827
f 81/177/28 87/187/28 82/208/28

f 82/208/28 87/187/28 90/186/28

f 82/208/28 90/186/28 85/194/28

f 92/185/28 85/194/28 90/186/28

vt -35.8268 0
vt -35.8268 2.75591
f 89/209/23 91/205/23 92/206/23 90/210/23 

vt 38.5827 2.75591
f 84/163/21 80/164/21 82/211/21 85/175/21 

g Mesh9 Glazing2 Window_Sliding_Casement_14_1 Window_Sliding_7_1 Group5 Model

usemtl WB_Glazing
v -4.9848 1.84 -2.94187
v -5.38325 1.84 -2.54341
v -5.38325 2.61 -2.54341
v -4.9848 2.61 -2.94187
f 93/184/28 94/185/28 95/186/28 96/187/28 

g Mesh10 Glazing3 Window_Sliding_Casement_14_1 Window_Sliding_7_1 Group5 Model

v -4.99187 1.84 -2.94894
v -5.39032 1.84 -2.55048
v -5.39032 2.61 -2.55048
v -4.99187 2.61 -2.94894
f 97/184/28 98/185/28 99/186/28 100/187/28 

g Mesh11 Window_Sliding_Casement_14_1 Window_Sliding_7_1 Group5 Model

usemtl WB_Frame
v -4.91055 2.68 -2.96662
v -4.96005 2.61 -2.91712
v -4.91055 1.77 -2.96662
f 101/152/27 102/188/27 103/162/27

v -5.408 2.68 -2.46917
f 102/188/27 101/152/27 104/189/27

v -4.96005 2.68 -3.01611
v -5.4575 2.68 -2.51866
f 104/190/22 101/172/22 105/162/22 106/191/22 

v -4.96005 1.77 -3.01611
f 101/180/23 103/172/23 107/162/23 105/192/23 

v -5.408 1.77 -2.46917
v -5.4575 1.77 -2.51866
f 103/163/29 108/193/29 109/194/29 107/175/29 

v -4.96005 1.84 -2.91712
f 103/162/27 110/195/27 108/191/27

f 110/195/27 103/162/27 102/188/27

v -5.00955 2.61 -2.96662
v -5.00955 1.84 -2.96662
f 110/196/21 102/197/21 111/198/21 112/199/21 

v -5.3585 2.61 -2.51866
v -5.408 2.61 -2.56816
f 102/196/29 113/200/29 114/201/29 111/199/29 

f 102/188/27 104/189/27 113/202/27

v -5.3585 1.84 -2.51866
f 113/202/27 104/189/27 115/203/27

f 108/191/27 115/203/27 104/189/27

f 108/191/27 110/195/27 115/203/27

v -5.408 1.84 -2.56816
f 115/204/22 110/205/22 112/206/22 116/207/22 

f 112/184/28 109/194/28 116/185/28

f 112/184/28 107/175/28 109/194/28

f 107/175/28 112/184/28 105/177/28

f 111/187/28 105/177/28 112/184/28

f 105/177/28 111/187/28 106/208/28

f 106/208/28 111/187/28 114/186/28

f 106/208/28 114/186/28 109/194/28

f 116/185/28 109/194/28 114/186/28

f 113/209/23 115/205/23 116/206/23 114/210/23 

f 108/163/21 104/164/21 106/211/21 109/175/21 

g Mesh12 Window_Fixed_Main_Frame_2 Window_Fixed_2_1 Group5 Model

v -4.36361 3.15 -3.41457
vt 0 15.748
vn 0.707107 5.90847e-14 0.707107
v -4.4131 3.08 -3.36507
vt -2.75591 12.9921
v -4.36361 2.75 -3.41457
f 117/212/30 118/213/30 119/153/30

v -5.408 3.15 -2.37017
vt -58.1496 15.748
f 118/213/30 117/212/30 120/214/30

vn -4.17792e-14 1 -4.17792e-14
v -4.43432 3.15 -3.48528
v -5.47871 3.15 -2.44088
f 120/155/31 117/153/31 121/156/31 122/157/31 

vt -15.748 0
v -4.43432 2.75 -3.48528
vt -15.748 3.93701
f 117/215/23 119/153/23 123/156/23 121/216/23 

vn 4.17792e-14 -1 4.17792e-14
v -5.408 2.75 -2.37017
v -5.47871 2.75 -2.44088
f 119/153/32 124/160/32 125/161/32 123/156/32 

v -4.4131 2.82 -3.36507
f 119/153/30 126/162/30 124/155/30

f 126/162/30 119/153/30 118/213/30

vt 12.9921 0
v -4.48381 3.08 -3.43578
vt 12.9921 3.93701
v -4.48381 2.82 -3.43578
f 126/163/21 118/217/21 127/218/21 128/166/21 

v -5.3585 3.08 -2.41967
v -5.42922 3.08 -2.49038
f 118/163/32 129/167/32 130/168/32 127/166/32 

vt -55.3937 12.9921
f 118/213/30 120/214/30 129/219/30

v -5.3585 2.82 -2.41967
f 129/219/30 120/214/30 131/170/30

f 124/155/30 131/170/30 120/214/30

f 124/155/30 126/162/30 131/170/30

v -5.42922 2.82 -2.49038
f 131/171/31 126/172/31 128/173/31 132/174/31 

vn -0.707107 -5.90847e-14 -0.707107
f 128/175/33 125/160/33 132/176/33

f 128/175/33 123/153/33 125/160/33

f 123/153/33 128/175/33 121/212/33

vt 2.75591 12.9921
f 127/220/33 121/212/33 128/175/33

vt 58.1496 15.748
f 121/212/33 127/220/33 122/221/33

vt 55.3937 12.9921
f 122/221/33 127/220/33 130/222/33

f 122/221/33 130/222/33 125/160/33

f 132/176/33 125/160/33 130/222/33

vt -12.9921 0
vt -12.9921 3.93701
f 129/223/23 131/172/23 132/173/23 130/224/23 

vt 15.748 0
vt 15.748 3.93701
f 124/153/21 120/225/21 122/226/21 125/156/21 

g Mesh13 Glazing4 Window_Fixed_2_1 Group5 Model

usemtl WB_Glazing
v -4.44846 2.82 -3.40043
v -5.39386 2.82 -2.45503
v -5.39386 3.08 -2.45503
v -4.44846 3.08 -3.40043
f 133/175/33 134/176/33 135/222/33 136/220/33 

g Mesh14 Glazing5 Window_Fixed_2_1 Group5 Model

v -4.45553 2.82 -3.4075
v -5.40093 2.82 -2.4621
v -5.40093 3.08 -2.4621
v -4.45553 3.08 -3.4075
f 137/175/33 138/176/33 139/222/33 140/220/33 

